<?xml version="1.0" encoding="UTF-8"?> <svg xmlns="http://www.w3.org/2000/svg" id="Logo_21" data-name="Logo 21" viewBox="0 0 185.36 116.93"> <defs> <style>.cls-1{fill:#fff;}</style> </defs> <path class="cls-1" d="M97.15,21.79l17.29-2,17.78,2c2.06,0,3.73,8.19,3.73,15.05l-21.51-3.43-21,3.43C93.41,30,95.08,21.79,97.15,21.79Zm18.43,10.58,18.92,3.2c0-6.41-1.84-9.7-1.84-9.7l-17.23-2.46Zm-1.65-9L96.71,25.87s-1.84,3.29-1.84,9.7l18.92-3.2Z" transform="translate(-22.19 -19.83)"></path> <path class="cls-1" d="M94.23,39.81l14.49-3.68c1.36-.85,6-.94,6-.94s4.6.09,6,.94l14.48,3.68s1.87.66,1.87,1.89V76.29H92.36V41.7C92.36,40.47,94.23,39.81,94.23,39.81Zm20.45-2.47a3,3,0,1,0,3,3A3,3,0,0,0,114.68,37.34Zm0,13.11a3,3,0,1,0,3,3A3,3,0,0,0,114.68,50.45ZM131.33,74.7a2.2,2.2,0,1,0-2.19-2.19A2.19,2.19,0,0,0,131.33,74.7Zm-25.7-4.06h18.1a.56.56,0,0,0,0-1.12h-18.1a.56.56,0,0,0,0,1.12ZM104.45,67h20.46a.56.56,0,0,0,0-1.12H104.45a.56.56,0,0,0,0,1.12Zm-1-3.67H126a.56.56,0,0,0,0-1.12H103.41a.56.56,0,0,0,0,1.12Zm-1-3.67H127a.56.56,0,0,0,0-1.12H102.36a.56.56,0,0,0,0,1.12ZM98,74.7a2.2,2.2,0,1,0-2.2-2.19A2.19,2.19,0,0,0,98,74.7Z" transform="translate(-22.19 -19.83)"></path> <polygon class="cls-1" points="79.9 62.2 92.63 62.2 105.36 62.2 107.21 69.58 92.63 72.11 78.05 69.58 79.9 62.2"></polygon> <path class="cls-1" d="M92.36,89.33V77.68H137V89.33m-4.33.67h-.21l-3.33-9.24h-28.9L96.91,90h-.22" transform="translate(-22.19 -19.83)"></path> <polygon class="cls-1" points="68.94 33.15 68.94 46.86 56.29 47.32 56.29 37.83 68.94 33.15"></polygon> <polygon class="cls-1" points="54.97 38.65 54.97 47.03 40.39 48.84 40.39 43.05 54.97 38.65"></polygon> <polygon class="cls-1" points="38.89 43.58 38.89 48.87 24.65 51.15 24.65 47.48 38.89 43.58"></polygon> <polygon class="cls-1" points="23.76 47.76 23.76 51.32 8.14 54.12 8.14 51.66 23.76 47.76"></polygon> <path class="cls-1" d="M23,136.69a.8.8,0,0,1-.54-.21.72.72,0,0,1-.23-.53V115.09a.7.7,0,0,1,.56-.73.76.76,0,0,1,.89.34q2.85,4.55,4.9,7.77l3.38,5.34,2.1,3.34,1.38,2.19V115.09a.69.69,0,0,1,.25-.53.76.76,0,0,1,.55-.23.65.65,0,0,1,.52.23.73.73,0,0,1,.22.53V136a.68.68,0,0,1-.52.71.76.76,0,0,1-.89-.31l-4.89-7.77q-2-3.23-3.38-5.34l-2.12-3.34q-.77-1.22-1.41-2.19V136a.71.71,0,0,1-.22.53A.74.74,0,0,1,23,136.69Z" transform="translate(-22.19 -19.83)"></path> <path class="cls-1" d="M48.92,136.69a8.14,8.14,0,0,1-4-.95,6.83,6.83,0,0,1-2.66-2.67,8.19,8.19,0,0,1-1-4V122a8.12,8.12,0,0,1,1-4,6.74,6.74,0,0,1,2.66-2.66,8.94,8.94,0,0,1,8,0,6.8,6.8,0,0,1,2.66,2.66,8.12,8.12,0,0,1,.95,4v7.12a8.19,8.19,0,0,1-.95,4,6.9,6.9,0,0,1-2.66,2.67A8.14,8.14,0,0,1,48.92,136.69Zm0-1.53a6.46,6.46,0,0,0,3.21-.76,5.24,5.24,0,0,0,2.12-2.13,6.61,6.61,0,0,0,.75-3.2V122a6.56,6.56,0,0,0-.75-3.21,5.22,5.22,0,0,0-2.12-2.12,7.16,7.16,0,0,0-6.42,0,5.22,5.22,0,0,0-2.12,2.12,6.56,6.56,0,0,0-.75,3.21v7.12a6.61,6.61,0,0,0,.75,3.2,5.24,5.24,0,0,0,2.12,2.13A6.46,6.46,0,0,0,48.92,135.16Z" transform="translate(-22.19 -19.83)"></path> <path class="cls-1" d="M61.64,136.69a.76.76,0,0,1-.54-.21.72.72,0,0,1-.23-.53V115.09a.77.77,0,0,1,.58-.76.69.69,0,0,1,.86.37l7.35,12.84L77,114.7a.64.64,0,0,1,.38-.34.81.81,0,0,1,.48,0,.77.77,0,0,1,.58.76V136a.68.68,0,0,1-.23.53.8.8,0,0,1-.57.21.72.72,0,0,1-.52-.21.74.74,0,0,1-.21-.53V118l-6.61,11.49a.67.67,0,0,1-.67.4.75.75,0,0,1-.68-.4L62.41,118v18a.74.74,0,0,1-.77.74Z" transform="translate(-22.19 -19.83)"></path> <path class="cls-1" d="M82.43,136.54a.67.67,0,0,1-.43-.39.78.78,0,0,1,0-.6l7.72-20.79a.73.73,0,0,1,.73-.49.74.74,0,0,1,.74.49l7.74,20.79a.74.74,0,0,1,0,.6.7.7,0,0,1-.45.39.67.67,0,0,1-.57,0,.8.8,0,0,1-.41-.44l-7-18.83-4.27,11.39H92a.7.7,0,0,1,.52.23.85.85,0,0,1,.22.57.71.71,0,0,1-.22.52.69.69,0,0,1-.52.22H85.6l-2.18,5.9a.82.82,0,0,1-.4.44A.71.71,0,0,1,82.43,136.54Z" transform="translate(-22.19 -19.83)"></path> <path class="cls-1" d="M103.2,136.29a.78.78,0,0,1-.54-.23.74.74,0,0,1-.23-.54v-20a.79.79,0,0,1,.77-.77h6.27a6.68,6.68,0,0,1,3.56,1,7.5,7.5,0,0,1,2.57,2.56,6.79,6.79,0,0,1,1,3.56v7.29a6.82,6.82,0,0,1-1,3.57,7.38,7.38,0,0,1-2.57,2.58,6.68,6.68,0,0,1-3.56,1Zm.77-1.53h5.5a5.27,5.27,0,0,0,2.79-.76,5.75,5.75,0,0,0,2-2,5.45,5.45,0,0,0,.75-2.81v-7.29a5.35,5.35,0,0,0-.75-2.79,5.8,5.8,0,0,0-2-2,5.36,5.36,0,0,0-2.79-.76H104Z" transform="translate(-22.19 -19.83)"></path> <path class="cls-1" d="M136,136.72a.8.8,0,0,1-.57-.21.72.72,0,0,1-.23-.53V116.32h-6.67a.66.66,0,0,1-.52-.23.79.79,0,0,1,0-1.07.66.66,0,0,1,.52-.23h14.87a.7.7,0,0,1,.54.23.74.74,0,0,1,0,1.07.7.7,0,0,1-.54.23h-6.67V136a.74.74,0,0,1-.21.53A.72.72,0,0,1,136,136.72Z" transform="translate(-22.19 -19.83)"></path> <path class="cls-1" d="M148.33,136.72a.76.76,0,0,1-.54-.21.72.72,0,0,1-.23-.53V115.56a.74.74,0,0,1,.23-.54.7.7,0,0,1,.54-.23h7.55a5.93,5.93,0,0,1,3.12.84,6.64,6.64,0,0,1,2.25,2.25,5.87,5.87,0,0,1,.84,3.08,6,6,0,0,1-.63,2.71,6.44,6.44,0,0,1-1.7,2.13A5.86,5.86,0,0,1,157.3,127l4.76,8.64a.77.77,0,0,1,.06.59.74.74,0,0,1-.34.45.79.79,0,0,1-.6.06.73.73,0,0,1-.44-.37l-5.07-9.18h-4.49a.74.74,0,0,1-.53-.23.72.72,0,0,1-.23-.54.68.68,0,0,1,.23-.55.73.73,0,0,1,.53-.22h4.7a4.5,4.5,0,0,0,2.35-.63,4.72,4.72,0,0,0,1.69-1.69,4.5,4.5,0,0,0,.63-2.35,4.4,4.4,0,0,0-.63-2.33,4.77,4.77,0,0,0-1.69-1.68,4.5,4.5,0,0,0-2.35-.63h-6.79V136a.74.74,0,0,1-.21.53A.75.75,0,0,1,148.33,136.72Z" transform="translate(-22.19 -19.83)"></path> <path class="cls-1" d="M165.47,136.54a.62.62,0,0,1-.43-.39.78.78,0,0,1,0-.6l7.71-20.79a.8.8,0,0,1,1.47,0L182,135.55a.74.74,0,0,1,0,.6.68.68,0,0,1-.45.39.65.65,0,0,1-.56,0,.79.79,0,0,1-.42-.44l-7-18.83-4.27,11.39H175a.72.72,0,0,1,.53.23.84.84,0,0,1,.21.57.7.7,0,0,1-.21.52.71.71,0,0,1-.53.22h-6.39l-2.18,5.9a.79.79,0,0,1-.4.44A.69.69,0,0,1,165.47,136.54Z" transform="translate(-22.19 -19.83)"></path> <path class="cls-1" d="M186.82,136.69a.76.76,0,0,1-.54-.21.72.72,0,0,1-.23-.53V115.13a.78.78,0,0,1,.23-.57.7.7,0,0,1,.54-.23.7.7,0,0,1,.55.23.81.81,0,0,1,.22.57V136a.74.74,0,0,1-.77.74Z" transform="translate(-22.19 -19.83)"></path> <path class="cls-1" d="M193.58,136.69a.76.76,0,0,1-.54-.21.72.72,0,0,1-.23-.53V115.09a.69.69,0,0,1,.55-.73.75.75,0,0,1,.89.34l4.9,7.77,3.38,5.34c.89,1.42,1.59,2.53,2.11,3.34l1.38,2.19V115.09a.71.71,0,0,1,.24-.53.78.78,0,0,1,.56-.23.66.66,0,0,1,.52.23.76.76,0,0,1,.21.53V136a.67.67,0,0,1-.52.71.76.76,0,0,1-.89-.31l-4.88-7.77q-2-3.23-3.38-5.34l-2.12-3.34c-.51-.81-1-1.54-1.42-2.19V136a.74.74,0,0,1-.21.53A.75.75,0,0,1,193.58,136.69Z" transform="translate(-22.19 -19.83)"></path> </svg> 