<svg width="164" height="25" viewBox="0 0 164 25" fill="none" xmlns="http://www.w3.org/2000/svg">
<path d="M154.058 21.1191H163.86V23.6777H154.058V21.1191ZM154.058 0.254236H163.86V2.8128H154.058V0.254236ZM151.356 12.9026V23.6777H148.401V0.254236H151.356V10.4165H162.635V12.9026H151.356ZM129.229 5.62366H132.148V23.6777H129.229V5.62366ZM122.021 0.254236H139.354V2.92107H122.021V0.254236ZM112.939 23.6777H109.984V0.254236H112.939V23.6777ZM93.1896 2.56052V0.00195312C96.1814 0.28998 98.2709 1.6234 99.3164 3.06509L97.3341 6.16397C96.7574 4.07422 95.2079 2.88481 93.1896 2.56052ZM90.7754 12.7228C87.5324 11.5334 84.1086 10.2 84.1086 6.12771C84.1086 2.99308 86.4516 0.506518 90.4874 0.0376976V2.59626C88.2531 2.92107 87.2084 4.14623 87.2084 5.9122C87.2084 8.54228 90.4514 9.44363 93.0816 10.4522C96.3254 11.6774 99.6771 13.1549 99.6771 17.5151C99.6771 21.0466 97.2261 23.4611 93.1896 23.93V21.3714C95.2079 21.0108 96.5774 19.7857 96.5774 17.7674C96.5774 14.7768 93.3704 13.7314 90.7754 12.7228ZM90.4874 21.4796V24.002C86.8476 23.7497 84.8654 22.2722 83.4959 20.9388L85.4421 17.8037C86.2709 19.4614 87.9291 21.1549 90.4874 21.4796ZM66.0175 5.62366H68.9367V23.6777H66.0175V5.62366ZM58.8101 0.254236H76.1436V2.92107H58.8101V0.254236ZM47.0963 0.254236H49.9434V14.8126C49.9434 19.8215 47.8532 23.5337 42.0874 24.002V21.5154C45.6194 21.1191 47.0963 18.9569 47.0963 14.4883V0.254236ZM39.3849 21.4796V23.9657C33.6912 23.5337 31.6734 20.254 31.6734 15.0648V0.254236H34.592V14.7406C34.592 19.2091 36.0694 21.0466 39.3849 21.4796ZM12.2119 23.93V21.4071C16.3924 20.6503 18.4101 16.9385 18.4101 12.038C18.4101 6.70479 16.5364 3.1371 12.2119 2.56052V0.00195312C18.2304 0.578525 21.5096 5.08335 21.5096 12.038C21.5096 18.3083 17.9056 23.2088 12.2119 23.93ZM9.50929 0.00195312V2.56052C5.18527 3.17284 3.23902 6.81254 3.23902 12.0737C3.23902 17.2628 5.04074 20.9026 9.50929 21.4434V24.002C3.38355 23.4611 0.140137 18.8486 0.140137 12.0737C0.140137 5.65991 3.56383 0.686794 9.50929 0.00195312Z" fill="white"/>
</svg>
