
<svg width="81" height="22" viewBox="0 0 81 22" fill="none" xmlns="http://www.w3.org/2000/svg">
<path d="M3.07812 21.3187V7.19859C3.07812 5.00258 4.85834 3.22236 7.05435 3.22236V3.22236C9.25036 3.22236 11.0306 5.00258 11.0306 7.19859V15.1728C11.0306 17.3397 12.7872 19.0964 14.9542 19.0964V19.0964C17.1212 19.0964 18.8778 17.3397 18.8778 15.1728V1" stroke="#121111" stroke-width="5.62179"/>
<rect x="26.2656" y="1" width="8.49693" height="8.49693" rx="4.24846" fill="#121111"/>
<rect x="26.2656" y="12.8203" width="8.49693" height="8.49693" rx="4.24846" fill="#121111"/>
<rect x="38.0859" y="12.8203" width="8.49693" height="8.49693" rx="4.24846" fill="#121111"/>
<path d="M53.9727 21.3214V7.71296C53.9727 5.53722 55.7364 3.77344 57.9122 3.77344V3.77344C60.0879 3.77344 61.8517 5.53722 61.8517 7.71296V12.5429C61.8517 14.6707 63.5767 16.3957 65.7045 16.3957V16.3957C67.8324 16.3957 69.5573 14.6707 69.5573 12.5429V7.67272C69.5573 5.51924 71.3031 3.77349 73.4566 3.77349V3.77349C75.6101 3.77349 77.3558 5.51924 77.3558 7.67273V21.3214" stroke="#121111" stroke-width="5.57769"/>
</svg>